<svg width="25" height="23" viewBox="0 0 25 23" fill="none" xmlns="http://www.w3.org/2000/svg">
<path d="M24.579 6.45498C24.4615 6.84133 24.3441 7.2239 24.2267 7.61025C23.4426 10.2731 22.6585 12.9397 21.8745 15.6025C21.4995 16.8752 20.4692 17.6933 19.2117 17.6971C15.761 17.7047 12.3065 17.7047 8.85585 17.6971C7.5377 17.6933 6.48469 16.7994 6.14379 15.4434C5.04533 11.0193 3.94309 6.59134 2.84084 2.15962C2.78402 1.93236 2.6969 1.86039 2.47721 1.86039C1.85602 1.86039 1.23103 1.86039 0.609834 1.86039C0.219692 1.86039 0.00378779 1.63312 0.00378779 1.22025C0 1.00814 0 0.796021 0 0.583905C0.00378779 0.246792 0.227267 0.00437376 0.545441 0.00437376C1.47724 0.000585973 2.40903 -0.00320181 3.34083 0.00437376C3.78021 0.00816155 4.09081 0.246792 4.2802 0.659661C4.69307 1.55737 5.10215 2.45507 5.51502 3.35278C5.78395 3.93989 6.05667 4.52699 6.32182 5.11789C6.46954 5.45121 6.70817 5.60272 7.05665 5.60272C12.6398 5.59894 18.223 5.60272 23.8062 5.59894C24.1661 5.59894 24.4729 5.77696 24.5676 6.17847C24.5676 6.18226 24.5752 6.18604 24.5752 6.18604C24.5789 6.28074 24.579 6.36786 24.579 6.45498ZM14.1966 7.71252C11.7952 7.71252 9.38992 7.71631 6.98847 7.70873C6.59832 7.70873 6.35969 8.04963 6.46196 8.4322C6.75741 9.55717 7.02634 10.6859 7.30664 11.8147C7.56421 12.8525 7.82178 13.8904 8.08314 14.9283C8.19298 15.3714 8.4657 15.5911 8.9013 15.5949C9.03387 15.5949 9.17023 15.5949 9.3028 15.5949C12.583 15.5949 15.8633 15.5949 19.1473 15.5949C19.5942 15.5949 19.8632 15.3979 19.9882 14.9737C20.6321 12.7882 21.276 10.6064 21.9161 8.42084C21.9426 8.32614 21.954 8.2163 21.9351 8.1216C21.8896 7.85267 21.6927 7.71252 21.401 7.71252C18.992 7.71252 16.5943 7.71252 14.1966 7.71252Z" fill="white"/>
<path d="M8.92781 23C7.74981 23 6.79907 21.9924 6.79907 20.75C6.79907 19.5076 7.75738 18.4963 8.92781 18.4963C10.102 18.4963 11.0565 19.5114 11.0565 20.75C11.0565 21.9924 10.1058 23 8.92781 23Z" fill="white"/>
<path d="M18.973 18.4926C20.1472 18.4926 21.1017 19.5001 21.1017 20.7463C21.1017 21.9963 20.1548 23 18.9768 23C17.7988 23 16.8519 21.9963 16.8519 20.7463C16.8443 19.5001 17.795 18.4926 18.973 18.4926Z" fill="white"/>
</svg>
