<?xml version="1.0" encoding="utf-8"?>
<!-- Generator: Adobe Illustrator 26.0.1, SVG Export Plug-In . SVG Version: 6.00 Build 0)  -->
<svg version="1.1" id="Слой_1" xmlns="http://www.w3.org/2000/svg" xmlns:xlink="http://www.w3.org/1999/xlink" x="0px" y="0px"
	 viewBox="0 0 25 23" style="enable-background:new 0 0 25 23;" xml:space="preserve">
<path d="M24.6,6.5c-0.1,0.4-0.2,0.8-0.4,1.2c-0.8,2.7-1.6,5.3-2.4,8c-0.4,1.3-1.4,2.1-2.7,2.1c-3.5,0-6.9,0-10.4,0
	c-1.3,0-2.4-0.9-2.7-2.3C5,11,3.9,6.6,2.8,2.2C2.8,1.9,2.7,1.9,2.5,1.9c-0.6,0-1.2,0-1.9,0C0.2,1.9,0,1.6,0,1.2C0,1,0,0.8,0,0.6
	C0,0.2,0.2,0,0.5,0c0.9,0,1.9,0,2.8,0c0.4,0,0.7,0.2,0.9,0.7c0.4,0.9,0.8,1.8,1.2,2.7c0.3,0.6,0.5,1.2,0.8,1.8
	c0.1,0.3,0.4,0.5,0.7,0.5c5.6,0,11.2,0,16.7,0c0.4,0,0.7,0.2,0.8,0.6c0,0,0,0,0,0C24.6,6.3,24.6,6.4,24.6,6.5z M14.2,7.7
	c-2.4,0-4.8,0-7.2,0C6.6,7.7,6.4,8,6.5,8.4c0.3,1.1,0.6,2.3,0.8,3.4c0.3,1,0.5,2.1,0.8,3.1c0.1,0.4,0.4,0.7,0.8,0.7
	c0.1,0,0.3,0,0.4,0c3.3,0,6.6,0,9.8,0c0.4,0,0.7-0.2,0.8-0.6c0.6-2.2,1.3-4.4,1.9-6.6c0-0.1,0-0.2,0-0.3c0-0.3-0.2-0.4-0.5-0.4
	C19,7.7,16.6,7.7,14.2,7.7z"/>
<path d="M8.9,23c-1.2,0-2.1-1-2.1-2.2s1-2.3,2.1-2.3c1.2,0,2.1,1,2.1,2.3C11.1,22,10.1,23,8.9,23z"/>
<path d="M19,18.5c1.2,0,2.1,1,2.1,2.3c0,1.2-0.9,2.3-2.1,2.3c-1.2,0-2.1-1-2.1-2.3C16.8,19.5,17.8,18.5,19,18.5z"/>
</svg>
