<svg width="23" height="27" viewBox="0 0 23 27" fill="none" xmlns="http://www.w3.org/2000/svg">
<g clip-path="url(#clip0_19_345)">
<path d="M0.32236 27C0.0716966 26.8568 7.86157e-05 26.624 0.0179831 26.3375C0.214933 22.7566 0.393978 19.1757 0.573023 15.5948C0.68045 13.3031 0.787877 11.0292 0.895304 8.75531C0.895304 8.62998 0.949018 8.50465 1.00273 8.41513C1.36082 7.78847 1.75472 7.17972 2.11281 6.57096C2.32767 6.21287 2.50671 5.83688 3.06175 5.99802C3.00804 5.55041 2.97223 5.15651 2.91851 4.7447C2.8469 4.11805 2.75737 3.49139 2.68576 2.86473C2.64995 2.54245 2.81109 2.3455 3.16918 2.30969C3.97488 2.20226 4.78058 2.11274 5.56838 2.02322C6.37408 1.9337 7.17979 1.84417 7.96759 1.73675C8.09292 1.71884 8.23615 1.62932 8.32568 1.52189C9.32833 0.322291 10.5995 -0.19694 12.1214 0.0895324C13.6612 0.376005 14.6639 1.34285 15.1294 2.82892C15.201 3.02587 15.2905 3.11539 15.4875 3.16911C16.705 3.43767 17.9225 3.74205 19.1579 4.02852C19.5876 4.13595 19.695 4.315 19.6055 4.76261C19.516 5.15651 19.4265 5.55041 19.319 5.98011C19.5518 5.98011 19.7667 5.98011 19.9815 5.98011C20.2322 5.96221 20.4112 6.06964 20.5366 6.28449C20.9663 7.00067 21.4139 7.73476 21.8436 8.45094C21.8973 8.54046 21.9331 8.64789 21.9331 8.75531C22.0405 10.9755 22.148 13.1956 22.2554 15.4158C22.3807 17.994 22.524 20.5544 22.6493 23.1326C22.703 24.2248 22.7567 25.317 22.8283 26.3912C22.8462 26.6777 22.7567 26.8926 22.506 27.0358C15.1473 27 7.73483 27 0.32236 27ZM21.9331 26.069C21.6466 20.4291 21.3602 14.807 21.0737 9.18502C14.646 9.18502 8.23615 9.18502 1.80843 9.18502C1.52196 14.8249 1.23549 20.4291 0.949018 26.069C7.94968 26.069 14.9145 26.069 21.9331 26.069ZM3.6705 3.1512C3.86745 4.87004 4.0644 6.53515 4.26135 8.20027C5.03125 8.20027 5.74743 8.20027 6.48151 8.20027C6.37408 7.73476 6.26666 7.26924 6.15923 6.82163C6.06971 6.42773 6.17713 6.24868 6.57103 6.14125C7.35883 5.94431 8.14663 5.76526 8.91652 5.56831C9.52528 5.42508 10.1161 5.28184 10.7428 5.1207C10.6354 4.18966 10.5279 3.27653 10.4205 2.3276C8.16454 2.63197 5.92647 2.88264 3.6705 3.1512ZM13.321 3.56301C13.2494 3.90319 13.1778 4.22547 13.0883 4.56566C13.2852 4.51195 13.4464 4.47614 13.6075 4.44033C14.1446 4.315 14.3058 4.40452 14.4311 4.94165C14.6818 5.96221 14.9145 6.98277 15.1652 8.00332C15.1831 8.07494 15.2726 8.20027 15.3442 8.20027C16.1679 8.21818 17.0094 8.20027 17.8688 8.20027C18.1373 7.07229 18.4059 5.94431 18.6566 4.79842C16.884 4.40452 15.1294 3.99271 13.321 3.56301ZM7.12607 6.96486C7.2335 7.41248 7.34093 7.82428 7.43045 8.21818C9.72223 8.21818 11.9961 8.21818 14.2879 8.21818C14.0551 7.26924 13.8403 6.35611 13.6075 5.40717C11.4232 5.9264 9.29252 6.44563 7.12607 6.96486ZM9.68642 1.52189C10.0445 1.48608 10.3668 1.45027 10.6891 1.41447C11.0293 1.37866 11.2262 1.52189 11.2799 1.86208C11.3336 2.3455 11.3873 2.81102 11.4411 3.29444C11.5127 3.83157 11.5664 4.36871 11.638 4.90584C12.0856 4.88794 12.1035 4.87004 12.1751 4.51195C12.2826 4.02852 12.39 3.56301 12.5153 3.07958C12.6228 2.63197 12.8018 2.50664 13.2494 2.61407C13.5538 2.68569 13.8582 2.7573 14.1804 2.82892C13.6612 1.18171 11.3336 0.250673 9.68642 1.52189ZM19.14 6.85744C19.0326 7.32295 18.9251 7.75266 18.8177 8.21818C19.4444 8.21818 20.0352 8.21818 20.6798 8.21818C20.4112 7.78847 20.1785 7.37667 19.9278 6.96486C19.892 6.91115 19.8204 6.87534 19.7667 6.87534C19.5518 6.85744 19.3549 6.85744 19.14 6.85744ZM2.20233 8.21818C2.59623 8.21818 2.95432 8.21818 3.34822 8.21818C3.29451 7.78847 3.2587 7.39457 3.20499 6.98277C3.20499 6.94696 3.13337 6.87534 3.11546 6.87534C3.06175 6.89324 2.99013 6.92905 2.95432 6.96486C2.70366 7.35876 2.453 7.77057 2.20233 8.21818Z" fill="black"/>
<path d="M14.4132 13.8044C14.4132 13.5537 14.3953 13.303 14.4132 13.0345C14.4311 12.8375 14.3774 12.7122 14.1804 12.6048C13.6433 12.3183 13.4105 11.7095 13.5358 11.1187C13.6791 10.5279 14.1804 10.0981 14.7713 10.0623C15.3979 10.0265 15.9351 10.3846 16.1499 10.9576C16.3827 11.6021 16.132 12.3004 15.5053 12.6406C15.3621 12.7122 15.3263 12.8017 15.3263 12.945C15.3263 13.5895 15.3442 14.2341 15.2905 14.8607C15.1114 16.687 13.5358 18.191 11.7275 18.2805C9.7759 18.3879 8.02126 17.1167 7.66316 15.2546C7.51993 14.5206 7.57364 13.7507 7.55574 12.9987C7.55574 12.8017 7.50202 12.7122 7.34088 12.6227C6.78584 12.3183 6.53518 11.6916 6.69632 11.1008C6.85746 10.492 7.3946 10.0802 8.03916 10.0802C8.64791 10.0802 9.18505 10.492 9.34619 11.0829C9.50733 11.6916 9.25667 12.3362 8.70163 12.6406C8.52258 12.7301 8.46887 12.8375 8.48677 13.0345C8.50468 13.5537 8.48677 14.0908 8.50468 14.6101C8.5763 16.1499 9.88333 17.4032 11.441 17.4032C12.9987 17.4211 14.3236 16.1678 14.4132 14.628C14.4132 14.3415 14.3953 14.0729 14.4132 13.8044C14.3953 13.8044 14.3953 13.8044 14.4132 13.8044ZM8.41515 11.6379C8.50468 11.4052 8.45096 11.2082 8.25401 11.065C8.07497 10.9397 7.87802 10.9576 7.71688 11.1008C7.55574 11.244 7.50202 11.4231 7.60945 11.6379C7.93173 11.3694 8.05706 11.3694 8.41515 11.6379ZM14.449 11.6021C14.7892 11.3694 14.9324 11.3694 15.2726 11.62C15.38 11.4052 15.3263 11.2261 15.1652 11.0829C15.004 10.9397 14.8071 10.9397 14.628 11.0471C14.4311 11.1903 14.3774 11.3515 14.449 11.6021Z" fill="black"/>
</g>
<defs>
<clipPath id="clip0_19_345">
<rect width="22.882" height="27" fill="white"/>
</clipPath>
</defs>
</svg>
