<?xml version="1.0" encoding="utf-8"?>
<!-- Generator: Adobe Illustrator 16.0.2, SVG Export Plug-In . SVG Version: 6.00 Build 0)  -->
<!DOCTYPE svg PUBLIC "-//W3C//DTD SVG 1.1//EN" "http://www.w3.org/Graphics/SVG/1.1/DTD/svg11.dtd">
<svg version="1.1" id="Capa_1" xmlns="http://www.w3.org/2000/svg" xmlns:xlink="http://www.w3.org/1999/xlink" x="0px" y="0px"
	 width="705.5px" height="512px" viewBox="0 0 705.5 512" enable-background="new 0 0 705.5 512" xml:space="preserve">
<g>
	<g>
		<path fill="#5C3456" d="M690.801,96H14.698C6.585,96,0,100.779,0,106.667s6.585,10.667,14.698,10.667h676.104
			c8.112,0,14.698-4.779,14.698-10.667S698.913,96,690.801,96z"/>
	</g>
</g>
<g>
	<g>
		<path fill="#5C3456" d="M690.801,245.333H14.698C6.585,245.333,0,250.112,0,256c0,5.889,6.585,10.667,14.698,10.667h676.104
			c8.112,0,14.698-4.778,14.698-10.667C705.5,250.112,698.913,245.333,690.801,245.333z"/>
	</g>
</g>
<g>
	<g>
		<path fill="#5C3456" d="M690.801,394.667H14.698C6.585,394.667,0,399.445,0,405.333S6.585,416,14.698,416h676.104
			c8.112,0,14.698-4.779,14.698-10.667C705.499,399.445,698.913,394.667,690.801,394.667z"/>
	</g>
</g>
</svg>
