<svg width="25" height="27" viewBox="0 0 25 27" fill="none" xmlns="http://www.w3.org/2000/svg">
<g clip-path="url(#clip0_19_340)">
<path d="M14.9092 0C15.2967 0.295929 15.2897 0.556628 14.8881 0.852557C14.6274 1.0428 14.3667 1.23304 14.106 1.43032C14.7542 1.60647 15.4024 1.7333 16.0084 1.95172C20.5882 3.64275 23.3996 6.89092 24.1746 11.7174C25.0694 17.2837 22.0608 22.5399 16.8961 24.7594C15.7758 25.2385 14.6062 25.5344 13.3873 25.6542C13.0984 25.6824 12.8941 25.5485 12.8518 25.309C12.8095 25.0553 12.9716 24.851 13.2745 24.8228C14.4935 24.6889 15.6842 24.4071 16.7905 23.8787C20.5882 22.0608 22.85 19.0733 23.3855 14.888C24.1605 8.92015 20.0668 3.41728 14.1623 2.33925C14.0919 2.32516 14.0284 2.32516 13.9087 2.31811C14.1764 2.6845 14.423 3.01566 14.6485 3.35386C14.719 3.45955 14.8035 3.60752 14.7753 3.70616C14.7401 3.84003 14.6274 4.01618 14.5076 4.05141C14.3807 4.09368 14.1412 4.04436 14.0637 3.94572C13.5564 3.29749 13.0702 2.62813 12.5981 1.95172C12.4572 1.74739 12.5277 1.53601 12.725 1.39509C13.3591 0.930063 14.0073 0.465031 14.6414 0.00704593C14.733 0 14.8246 0 14.9092 0Z" fill="black"/>
<path d="M5.52417 13.4789C5.52417 11.4778 5.52417 9.46973 5.52417 7.46868C5.52417 6.98251 5.651 6.86273 6.13012 6.86273C10.1533 6.86273 14.1766 6.86273 18.2068 6.86273C18.693 6.86273 18.8128 6.98956 18.8128 7.46868C18.8128 11.4919 18.8128 15.5151 18.8128 19.5454C18.8128 20.0316 18.6859 20.1514 18.2068 20.1514C14.1836 20.1514 10.1604 20.1514 6.13012 20.1514C5.64395 20.1514 5.52417 20.0245 5.52417 19.5454C5.52417 17.5162 5.52417 15.494 5.52417 13.4789ZM6.37673 19.2847C10.252 19.2847 14.099 19.2847 17.9461 19.2847C17.9461 15.4165 17.9461 11.5624 17.9461 7.71529C16.7272 7.71529 15.5294 7.71529 14.3034 7.71529C14.3034 7.83507 14.3034 7.94076 14.3034 8.04645C14.3034 8.98356 14.3034 9.92771 14.3034 10.8648C14.3034 11.2664 14.1625 11.4003 13.7608 11.4003C12.718 11.4003 11.6682 11.4003 10.6254 11.4003C10.1392 11.4003 10.0265 11.2876 10.0265 10.7873C10.0265 9.85725 10.0265 8.92719 10.0265 7.99008C10.0265 7.89848 10.0195 7.80689 10.0124 7.70824C8.78643 7.70824 7.58862 7.70824 6.37673 7.70824C6.37673 11.5765 6.37673 15.4165 6.37673 19.2847ZM13.4438 10.5478C13.4438 9.58246 13.4438 8.6524 13.4438 7.71529C12.5842 7.71529 11.7457 7.71529 10.8932 7.71529C10.8932 8.66649 10.8932 9.59655 10.8932 10.5478C11.7457 10.5478 12.5842 10.5478 13.4438 10.5478Z" fill="black"/>
<path d="M10.428 24.6678C10.1603 24.3085 9.89253 23.9491 9.63888 23.5827C9.48387 23.3643 9.53319 23.1106 9.73047 22.9768C9.92071 22.8429 10.1462 22.8852 10.3153 23.0825C10.3294 23.1036 10.3505 23.1247 10.3646 23.1459C10.8015 23.7448 11.2383 24.3366 11.6681 24.9355C11.8795 25.2244 11.8442 25.4358 11.5554 25.6542C11.0058 26.0629 10.4492 26.4645 9.89253 26.8661C9.63183 27.0564 9.39227 27.0352 9.23726 26.8379C9.08225 26.6336 9.13861 26.38 9.39931 26.1897C9.66706 25.9924 9.9348 25.7951 10.2448 25.5626C9.9348 25.4922 9.66706 25.4358 9.39931 25.3794C4.68559 24.2944 1.01466 20.4332 0.190292 15.6842C-0.845459 9.72338 2.48726 4.03027 8.2156 2.04331C9.08929 1.74034 10.0194 1.62056 10.9353 1.43736C11.2172 1.381 11.4215 1.54305 11.4567 1.78966C11.492 2.04331 11.3229 2.2406 11.0199 2.26878C8.80746 2.51539 6.81346 3.30454 5.08721 4.70668C2.81138 6.55271 1.40924 8.93423 0.986481 11.8372C0.281889 16.7129 2.59295 21.2505 6.9121 23.5616C7.92672 24.1041 9.00474 24.4635 10.1321 24.6748C10.2096 24.6889 10.2871 24.696 10.3646 24.703C10.3787 24.703 10.3928 24.6889 10.428 24.6678Z" fill="black"/>
</g>
<defs>
<clipPath id="clip0_19_340">
<rect width="24.3296" height="27" fill="white"/>
</clipPath>
</defs>
</svg>
