<svg width="106" height="26" viewBox="0 0 106 26" fill="none" xmlns="http://www.w3.org/2000/svg">
<path d="M34.112 10H33.104V1.6H39.956V10H38.948V2.56H34.112V10ZM42.3337 9.34C41.7257 8.796 41.4217 8.056 41.4217 7.12C41.4217 6.184 41.7257 5.448 42.3337 4.912C42.9417 4.368 43.6617 4.096 44.4937 4.096C45.3337 4.096 46.0537 4.368 46.6537 4.912C47.2617 5.448 47.5657 6.184 47.5657 7.12C47.5657 8.056 47.2617 8.796 46.6537 9.34C46.0537 9.876 45.3337 10.144 44.4937 10.144C43.6617 10.144 42.9417 9.876 42.3337 9.34ZM46.0057 8.668C46.4057 8.284 46.6057 7.768 46.6057 7.12C46.6057 6.472 46.4057 5.96 46.0057 5.584C45.6057 5.2 45.1017 5.008 44.4937 5.008C43.8857 5.008 43.3817 5.2 42.9817 5.584C42.5817 5.96 42.3817 6.472 42.3817 7.12C42.3817 7.768 42.5817 8.284 42.9817 8.668C43.3817 9.044 43.8857 9.232 44.4937 9.232C45.1017 9.232 45.6057 9.044 46.0057 8.668ZM49.1503 11.56H48.2143V9.136H48.9823C49.6623 7.936 49.9903 6.304 49.9663 4.24H54.2623V9.136H55.1023V11.56H54.1663V10H49.1503V11.56ZM50.8903 5.104C50.8503 6.68 50.5623 8.024 50.0263 9.136H53.3023V5.104H50.8903ZM61.0641 8.8C61.0641 9.096 61.2121 9.244 61.5081 9.244C61.6361 9.244 61.7841 9.216 61.9521 9.16V9.94C61.7121 10.028 61.4721 10.072 61.2321 10.072C60.6801 10.072 60.3281 9.84 60.1761 9.376C59.5601 9.888 58.8121 10.144 57.9321 10.144C57.3721 10.144 56.8921 9.996 56.4921 9.7C56.1001 9.396 55.9041 8.96 55.9041 8.392C55.9041 7.712 56.1561 7.22 56.6601 6.916C57.1721 6.604 57.7881 6.448 58.5081 6.448C59.0361 6.448 59.5681 6.508 60.1041 6.628V6.424C60.1041 5.984 59.9601 5.636 59.6721 5.38C59.3841 5.116 58.9801 4.984 58.4601 4.984C57.7321 4.984 57.0321 5.128 56.3601 5.416V4.48C57.1121 4.224 57.8441 4.096 58.5561 4.096C59.3401 4.096 59.9521 4.308 60.3921 4.732C60.8401 5.148 61.0641 5.752 61.0641 6.544V8.8ZM56.8881 8.344C56.8881 8.664 57.0081 8.908 57.2481 9.076C57.4961 9.236 57.7921 9.316 58.1361 9.316C58.9281 9.316 59.5841 9.036 60.1041 8.476V7.42C59.5601 7.308 59.0721 7.252 58.6401 7.252C58.1521 7.252 57.7361 7.34 57.3921 7.516C57.0561 7.684 56.8881 7.96 56.8881 8.344ZM63.8458 5.2C64.4938 4.464 65.2698 4.096 66.1738 4.096C66.9978 4.096 67.6818 4.384 68.2258 4.96C68.7778 5.536 69.0538 6.256 69.0538 7.12C69.0538 7.984 68.7778 8.704 68.2258 9.28C67.6818 9.856 66.9978 10.144 66.1738 10.144C65.2618 10.144 64.5178 9.808 63.9418 9.136V12.64H62.9818V4.24H63.8458V5.2ZM67.5058 8.668C67.8978 8.276 68.0938 7.76 68.0938 7.12C68.0938 6.48 67.8978 5.964 67.5058 5.572C67.1218 5.18 66.6418 4.984 66.0658 4.984C65.5778 4.984 65.1458 5.12 64.7698 5.392C64.3938 5.664 64.1178 6 63.9418 6.4V7.84C64.1178 8.24 64.3938 8.576 64.7698 8.848C65.1458 9.12 65.5778 9.256 66.0658 9.256C66.6418 9.256 67.1218 9.06 67.5058 8.668ZM70.9509 9.34C70.3429 8.796 70.0389 8.056 70.0389 7.12C70.0389 6.184 70.3429 5.448 70.9509 4.912C71.5589 4.368 72.2789 4.096 73.1109 4.096C73.9509 4.096 74.6709 4.368 75.2709 4.912C75.8789 5.448 76.1829 6.184 76.1829 7.12C76.1829 8.056 75.8789 8.796 75.2709 9.34C74.6709 9.876 73.9509 10.144 73.1109 10.144C72.2789 10.144 71.5589 9.876 70.9509 9.34ZM74.6229 8.668C75.0229 8.284 75.2229 7.768 75.2229 7.12C75.2229 6.472 75.0229 5.96 74.6229 5.584C74.2229 5.2 73.7189 5.008 73.1109 5.008C72.5029 5.008 71.9989 5.2 71.5989 5.584C71.1989 5.96 70.9989 6.472 70.9989 7.12C70.9989 7.768 71.1989 8.284 71.5989 8.668C71.9989 9.044 72.5029 9.232 73.1109 9.232C73.7189 9.232 74.2229 9.044 74.6229 8.668ZM78.5199 10H77.5599V4.24H78.5199V6.64H79.6839L81.5079 4.24H82.6239L80.4399 7.108L82.8879 10H81.7599L79.6479 7.528H78.5199V10ZM33.404 21.34C32.796 20.796 32.492 20.056 32.492 19.12C32.492 18.184 32.796 17.448 33.404 16.912C34.012 16.368 34.732 16.096 35.564 16.096C36.404 16.096 37.124 16.368 37.724 16.912C38.332 17.448 38.636 18.184 38.636 19.12C38.636 20.056 38.332 20.796 37.724 21.34C37.124 21.876 36.404 22.144 35.564 22.144C34.732 22.144 34.012 21.876 33.404 21.34ZM37.076 20.668C37.476 20.284 37.676 19.768 37.676 19.12C37.676 18.472 37.476 17.96 37.076 17.584C36.676 17.2 36.172 17.008 35.564 17.008C34.956 17.008 34.452 17.2 34.052 17.584C33.652 17.96 33.452 18.472 33.452 19.12C33.452 19.768 33.652 20.284 34.052 20.668C34.452 21.044 34.956 21.232 35.564 21.232C36.172 21.232 36.676 21.044 37.076 20.668ZM42.2255 22H41.2655V17.128H39.1415V16.24H44.3375V17.128H42.2255V22ZM47.8513 13.84H53.7313V14.752L50.3233 22H49.2433L52.6273 14.8H47.8513V13.84ZM55.5084 20.98C54.9004 20.204 54.5964 19.184 54.5964 17.92C54.5964 16.656 54.9004 15.636 55.5084 14.86C56.1164 14.084 57.0124 13.696 58.1964 13.696C59.3884 13.696 60.2884 14.084 60.8964 14.86C61.5044 15.628 61.8084 16.648 61.8084 17.92C61.8084 19.192 61.5044 20.216 60.8964 20.992C60.2884 21.76 59.3884 22.144 58.1964 22.144C57.0124 22.144 56.1164 21.756 55.5084 20.98ZM60.1404 20.344C60.5724 19.776 60.7884 18.968 60.7884 17.92C60.7884 16.872 60.5724 16.068 60.1404 15.508C59.7164 14.94 59.0684 14.656 58.1964 14.656C57.3244 14.656 56.6764 14.94 56.2524 15.508C55.8284 16.068 55.6164 16.872 55.6164 17.92C55.6164 18.968 55.8284 19.776 56.2524 20.344C56.6764 20.904 57.3244 21.184 58.1964 21.184C59.0684 21.184 59.7164 20.904 60.1404 20.344ZM63.9459 20.98C63.3379 20.204 63.0339 19.184 63.0339 17.92C63.0339 16.656 63.3379 15.636 63.9459 14.86C64.5539 14.084 65.4499 13.696 66.6339 13.696C67.8259 13.696 68.7259 14.084 69.3339 14.86C69.9419 15.628 70.2459 16.648 70.2459 17.92C70.2459 19.192 69.9419 20.216 69.3339 20.992C68.7259 21.76 67.8259 22.144 66.6339 22.144C65.4499 22.144 64.5539 21.756 63.9459 20.98ZM68.5779 20.344C69.0099 19.776 69.2259 18.968 69.2259 17.92C69.2259 16.872 69.0099 16.068 68.5779 15.508C68.1539 14.94 67.5059 14.656 66.6339 14.656C65.7619 14.656 65.1139 14.94 64.6899 15.508C64.2659 16.068 64.0539 16.872 64.0539 17.92C64.0539 18.968 64.2659 19.776 64.6899 20.344C65.1139 20.904 65.7619 21.184 66.6339 21.184C67.5059 21.184 68.1539 20.904 68.5779 20.344ZM72.3834 20.98C71.7754 20.204 71.4714 19.184 71.4714 17.92C71.4714 16.656 71.7754 15.636 72.3834 14.86C72.9914 14.084 73.8874 13.696 75.0714 13.696C76.2634 13.696 77.1634 14.084 77.7714 14.86C78.3794 15.628 78.6834 16.648 78.6834 17.92C78.6834 19.192 78.3794 20.216 77.7714 20.992C77.1634 21.76 76.2634 22.144 75.0714 22.144C73.8874 22.144 72.9914 21.756 72.3834 20.98ZM77.0154 20.344C77.4474 19.776 77.6634 18.968 77.6634 17.92C77.6634 16.872 77.4474 16.068 77.0154 15.508C76.5914 14.94 75.9434 14.656 75.0714 14.656C74.1994 14.656 73.5514 14.94 73.1274 15.508C72.7034 16.068 72.4914 16.872 72.4914 17.92C72.4914 18.968 72.7034 19.776 73.1274 20.344C73.5514 20.904 74.1994 21.184 75.0714 21.184C75.9434 21.184 76.5914 20.904 77.0154 20.344ZM84.0372 17.2C84.6852 16.464 85.4612 16.096 86.3652 16.096C87.1892 16.096 87.8732 16.384 88.4172 16.96C88.9692 17.536 89.2452 18.256 89.2452 19.12C89.2452 19.984 88.9692 20.704 88.4172 21.28C87.8732 21.856 87.1892 22.144 86.3652 22.144C85.4532 22.144 84.7092 21.808 84.1332 21.136V24.64H83.1732V16.24H84.0372V17.2ZM87.6972 20.668C88.0892 20.276 88.2852 19.76 88.2852 19.12C88.2852 18.48 88.0892 17.964 87.6972 17.572C87.3132 17.18 86.8332 16.984 86.2572 16.984C85.7692 16.984 85.3372 17.12 84.9612 17.392C84.5852 17.664 84.3092 18 84.1332 18.4V19.84C84.3092 20.24 84.5852 20.576 84.9612 20.848C85.3372 21.12 85.7692 21.256 86.2572 21.256C86.8332 21.256 87.3132 21.06 87.6972 20.668ZM92.8511 20.908L94.7951 16.24H95.8151L92.9831 22.864C92.4311 24.144 91.7071 24.784 90.8111 24.784C90.5951 24.784 90.3871 24.756 90.1871 24.7V23.872C90.3551 23.92 90.5231 23.944 90.6911 23.944C91.3071 23.944 91.8031 23.476 92.1791 22.54L92.3951 22.012L89.6591 16.24H90.6791L92.8511 20.908ZM102.512 19.288C102.512 20.176 102.24 20.876 101.696 21.388C101.16 21.892 100.452 22.144 99.5721 22.144C98.6761 22.144 97.9521 21.848 97.4001 21.256C96.8561 20.664 96.5841 19.836 96.5841 18.772C96.5841 17.844 96.7441 17.044 97.0641 16.372C97.3841 15.7 97.8161 15.196 98.3601 14.86C98.7281 14.636 99.1081 14.46 99.5001 14.332C99.9001 14.196 100.228 14.112 100.484 14.08C100.748 14.048 101.02 13.984 101.3 13.888C101.58 13.784 101.812 13.64 101.996 13.456V14.464C101.772 14.624 101.496 14.744 101.168 14.824C100.84 14.896 100.476 14.984 100.076 15.088C99.6761 15.192 99.2921 15.352 98.9241 15.568C98.5641 15.784 98.2841 16.056 98.0841 16.384C97.8841 16.712 97.7081 17.104 97.5561 17.56C97.7641 17.24 98.0601 16.98 98.4441 16.78C98.8281 16.58 99.2401 16.48 99.6801 16.48C100.456 16.48 101.12 16.74 101.672 17.26C102.232 17.78 102.512 18.456 102.512 19.288ZM97.5441 19.312C97.5441 19.864 97.7281 20.324 98.0961 20.692C98.4641 21.052 98.9481 21.232 99.5481 21.232C100.164 21.232 100.652 21.052 101.012 20.692C101.372 20.332 101.552 19.872 101.552 19.312C101.552 18.752 101.372 18.292 101.012 17.932C100.652 17.572 100.164 17.392 99.5481 17.392C98.9721 17.392 98.4921 17.588 98.1081 17.98C97.7321 18.364 97.5441 18.808 97.5441 19.312ZM104.615 21.052C104.735 21.156 104.795 21.304 104.795 21.496C104.795 21.688 104.735 21.84 104.615 21.952C104.495 22.056 104.347 22.108 104.171 22.108C103.995 22.108 103.843 22.056 103.715 21.952C103.595 21.84 103.535 21.688 103.535 21.496C103.535 21.304 103.595 21.156 103.715 21.052C103.843 20.948 103.995 20.896 104.171 20.896C104.347 20.896 104.495 20.948 104.615 21.052Z" fill="black"/>
<path d="M3.50217 4.23767C3.04246 3.52721 2.88365 2.79167 3.11769 1.99762C3.51053 0.676988 4.96489 -0.183928 6.42762 0.0333906C7.50585 0.1922 8.40856 0.710422 9.22768 1.39581C9.40321 1.54626 9.53694 1.57134 9.7459 1.47104C10.3728 1.17013 11.0247 0.911023 11.66 0.618479C11.9191 0.493103 12.1448 0.501461 12.4039 0.626838C13.0475 0.92774 13.6994 1.20357 14.343 1.49611C14.5186 1.5797 14.6272 1.56298 14.7777 1.4376C15.6051 0.727139 16.5246 0.200559 17.6279 0.041749C19.2411 -0.192286 20.7539 0.835798 21.0047 2.35703C21.0966 2.9254 20.9796 3.45198 20.7121 3.95348C20.662 4.04543 20.6118 4.12901 20.545 4.23767C21.5145 4.67231 22.459 5.1153 23.4203 5.50815C23.8883 5.70039 24.0471 5.97622 24.0471 6.47772C24.0304 10.7154 24.0304 14.9448 24.0471 19.1825C24.0471 19.6004 23.905 19.8261 23.5206 19.9933C19.8345 21.6232 16.1484 23.2614 12.4707 24.8997C12.1615 25.0417 11.894 25.0501 11.5848 24.908C7.88198 23.2363 4.16249 21.5897 0.451354 19.9515C0.133735 19.8094 0 19.6088 0 19.2494C0.00835841 14.9281 0.00835841 10.6151 0 6.29384C0 5.93443 0.133735 5.71711 0.468071 5.57502C1.47108 5.14874 2.46573 4.69738 3.50217 4.23767ZM6.52792 9.34466C6.51956 9.4366 6.51956 9.47839 6.51956 9.52018C6.51956 13.4486 6.51956 17.3854 6.5112 21.3139C6.5112 21.5061 6.58643 21.5814 6.75359 21.6566C8.24139 22.3085 9.72083 22.9689 11.2086 23.6292C11.3006 23.671 11.3925 23.7044 11.5095 23.7462C11.5179 23.6626 11.5262 23.6125 11.5262 23.5623C11.5262 19.6339 11.5262 15.697 11.5346 11.7686C11.5346 11.5847 11.451 11.5178 11.3089 11.451C10.0719 10.9077 8.83484 10.356 7.59779 9.80437C7.24674 9.66228 6.90405 9.51183 6.52792 9.34466ZM12.5293 23.7546C12.6713 23.696 12.7716 23.6543 12.8719 23.6125C14.3263 22.9689 15.7807 22.3169 17.2434 21.6817C17.4691 21.5814 17.5443 21.4643 17.5443 21.222C17.5359 17.3771 17.5359 13.5239 17.5359 9.67899C17.5359 9.57869 17.5276 9.47839 17.5192 9.35302C17.3855 9.41152 17.2852 9.45332 17.1765 9.49511C15.7305 10.1387 14.2845 10.7823 12.8302 11.4175C12.6045 11.5178 12.5125 11.6349 12.5125 11.894C12.5209 15.7305 12.5209 19.567 12.5209 23.4035C12.5293 23.5038 12.5293 23.6041 12.5293 23.7546ZM1.01973 6.91236C1.01137 6.97087 1.00301 7.01266 1.00301 7.05445C1.00301 10.9913 1.00301 14.9364 0.994651 18.8732C0.994651 19.0738 1.09495 19.1407 1.2454 19.2076C2.57439 19.7927 3.91174 20.3861 5.24072 20.9796C5.31595 21.013 5.39953 21.0381 5.49983 21.0715C5.50819 20.9963 5.50819 20.9545 5.50819 20.9127C5.50819 16.9842 5.50819 13.0558 5.51655 9.12734C5.51655 8.9351 5.44968 8.85151 5.28251 8.78464C3.94517 8.1912 2.59947 7.58939 1.26212 6.99594C1.18689 6.97087 1.11167 6.94579 1.01973 6.91236ZM18.5306 21.0882C18.681 21.0297 18.7813 20.9879 18.89 20.9461C20.1772 20.3778 21.456 19.801 22.7432 19.241C22.9689 19.1407 23.0441 19.0321 23.0441 18.7813C23.0358 14.9364 23.0358 11.0916 23.0358 7.2467C23.0358 7.1464 23.0358 7.04609 23.0358 6.91236C22.9104 6.96251 22.8185 6.99594 22.7265 7.03774C21.431 7.61447 20.1438 8.1912 18.8482 8.75957C18.6142 8.85987 18.5306 8.97689 18.5306 9.236C18.5389 13.0725 18.5389 16.909 18.5389 20.7372C18.5306 20.8291 18.5306 20.9378 18.5306 21.0882ZM12.7299 5.84248C13.2899 5.79233 13.7997 5.75054 14.3096 5.69203C15.555 5.5583 16.792 5.36606 17.9539 4.88127C18.5724 4.62216 19.1575 4.29618 19.6005 3.77796C20.1103 3.18451 20.1856 2.44061 19.7676 1.84717C19.3748 1.28715 18.8064 1.02804 18.1377 1.00297C17.3771 0.969532 16.7085 1.26208 16.0983 1.68C14.6272 2.67465 13.5657 4.02035 12.8051 5.60845C12.78 5.67532 12.7716 5.73383 12.7299 5.84248ZM11.2671 5.84248C11.3006 5.80905 11.334 5.78398 11.3591 5.75054C10.9997 5.1571 10.6653 4.54693 10.2641 3.98692C9.49515 2.90868 8.57573 1.97254 7.36376 1.37074C6.76195 1.06983 6.12671 0.902665 5.45804 1.07819C4.78101 1.25372 4.25443 1.62149 4.06219 2.32359C3.86158 3.01734 4.15413 3.57736 4.66399 4.02035C4.96489 4.27946 5.30759 4.52186 5.67536 4.69738C7.43898 5.56666 9.36142 5.66696 11.2671 5.84248ZM7.29689 8.55897C7.38883 8.60912 7.41391 8.63419 7.4557 8.65091C8.91842 9.30287 10.3811 9.95482 11.8522 10.5984C11.9692 10.6486 12.1615 10.6235 12.2869 10.5733C13.6911 9.96318 15.0869 9.3363 16.4828 8.71778C16.5664 8.68434 16.6416 8.63419 16.7502 8.57568C16.6082 8.50882 16.5079 8.45867 16.4076 8.41687C15.4129 7.98224 14.4183 7.56432 13.432 7.12132C13.0391 6.94579 12.6546 6.81206 12.2033 6.88729C11.9692 6.92908 11.7268 6.87057 11.4845 6.86221C11.3758 6.86221 11.2504 6.85385 11.1501 6.89564C9.87964 7.43058 8.60916 7.9906 7.29689 8.55897ZM14.9281 6.66997C15.9228 7.1046 16.8589 7.51417 17.8118 7.91537C17.9455 7.97388 18.1377 7.96552 18.2715 7.90701C19.5336 7.36371 20.7874 6.8037 22.0411 6.24369C22.1164 6.21025 22.1916 6.1601 22.2919 6.1016C21.4811 5.74218 20.7121 5.39949 19.9348 5.06515C19.8512 5.03172 19.7175 5.06515 19.6339 5.1153C18.8231 5.66696 17.9288 6.02637 16.9843 6.25205C16.324 6.41922 15.6553 6.52787 14.9281 6.66997ZM1.75527 6.10995C1.88064 6.16846 1.97258 6.21861 2.06453 6.26041C2.90037 6.63653 3.73621 7.0043 4.57205 7.38043C5.04848 7.58939 5.52491 7.96552 6.00134 7.96552C6.48613 7.96552 6.97927 7.60611 7.46406 7.39715C8.00736 7.16311 8.54229 6.92908 9.16082 6.66161C8.95186 6.62817 8.82648 6.61146 8.70946 6.58638C7.17987 6.35235 5.68372 5.99294 4.37981 5.09023C4.31294 5.04008 4.1792 5.04008 4.10398 5.07351C3.34336 5.39949 2.58275 5.74218 1.75527 6.10995ZM13.7496 2.31524C13.223 2.0812 12.6713 1.83045 12.1197 1.59641C12.0695 1.57134 11.986 1.56298 11.9442 1.58805C11.3842 1.83045 10.8325 2.0812 10.3143 2.31524C10.9077 3.16779 11.4845 4.00363 12.0277 4.78933C12.5794 3.99528 13.1561 3.16779 13.7496 2.31524Z" fill="black"/>
</svg>