<svg width="25" height="25" viewBox="0 0 25 25" fill="none" xmlns="http://www.w3.org/2000/svg">
<g clip-path="url(#clip0_19_349)">
<path d="M22.5999 11.7416C22.5999 15.8458 22.5999 19.9233 22.5999 24.0542C23.1442 24.0542 23.6706 24.0542 24.2059 24.0542C24.3308 24.0542 24.4557 24.0453 24.5717 24.0632C24.8216 24.1078 24.9732 24.2595 24.9732 24.5182C24.9732 24.7769 24.8216 24.9286 24.5807 24.9822C24.4736 25 24.3576 24.9911 24.2505 24.9911C16.4168 24.9911 8.57423 24.9911 0.740542 24.9911C0.687009 24.9911 0.633476 24.9911 0.571021 24.9911C0.214133 24.9822 0 24.8037 0 24.5182C0 24.2327 0.214133 24.0632 0.579943 24.0542C1.2045 24.0542 1.82013 24.0542 2.48037 24.0542C2.48037 23.9115 2.48037 23.7866 2.48037 23.6706C2.48037 19.8162 2.48037 15.9618 2.48929 12.1163C2.48929 11.8398 2.41792 11.7238 2.13241 11.6524C0.936831 11.349 0.089222 10.2962 0.0178444 9.06495C0.0089222 8.90435 0.044611 8.73483 0.0981442 8.58315C1.07959 5.87973 2.07887 3.1763 3.06031 0.472876C3.1763 0.142755 3.36367 0 3.72056 0C9.5646 0.0089222 15.4086 0.0089222 21.2527 0C21.6096 0 21.7969 0.142755 21.9129 0.472876C22.8944 3.1763 23.8936 5.87973 24.8662 8.59208C24.9732 8.89543 24.9375 9.27909 24.8662 9.60028C24.6163 10.6799 23.8936 11.349 22.5999 11.7416ZM21.6542 24.0453C21.6542 23.8847 21.6542 23.7509 21.6542 23.6171C21.6542 19.8608 21.6542 16.1135 21.6542 12.3572C21.6542 11.7773 21.6363 11.8219 21.1099 11.5632C20.6727 11.3401 20.2891 11.01 19.8965 10.7156C19.8162 10.662 19.7716 10.5728 19.6913 10.4836C19.0846 11.3044 18.2994 11.7505 17.2912 11.7595C16.2741 11.7595 15.4889 11.2866 14.8822 10.4836C14.2577 11.3133 13.4725 11.7595 12.4643 11.7595C11.4561 11.7595 10.6799 11.2866 10.091 10.5014C8.83298 12.1699 6.55782 12.1966 5.2641 10.5014C4.81799 11.1527 4.19343 11.5542 3.43505 11.7238C3.43505 15.8458 3.43505 19.9322 3.43505 24.0364C3.75625 24.0364 4.0596 24.0364 4.38972 24.0364C4.38972 23.8847 4.38972 23.7509 4.38972 23.6171C4.38972 20.3961 4.38972 17.1842 4.38972 13.9632C4.38972 13.419 4.51463 13.2941 5.05889 13.2941C6.82548 13.2941 8.601 13.2941 10.3676 13.2941C11.0011 13.2941 11.0992 13.3922 11.0992 14.0257C11.0992 17.2288 11.0992 20.4408 11.0992 23.6438C11.0992 23.7687 11.0992 23.9026 11.0992 24.0364C14.6324 24.0453 18.121 24.0453 21.6542 24.0453ZM10.1445 24.0364C10.1445 20.762 10.1445 17.5054 10.1445 14.2577C8.52962 14.2577 6.93255 14.2577 5.3444 14.2577C5.3444 17.5321 5.3444 20.7709 5.3444 24.0364C6.94147 24.0364 8.52962 24.0364 10.1445 24.0364ZM14.1417 0.954675C13.0353 0.954675 11.9468 0.954675 10.8315 0.954675C10.7423 3.44397 10.6531 5.91542 10.5728 8.39579C11.8665 8.39579 13.1335 8.39579 14.4004 8.39579C14.3201 5.90649 14.2309 3.44397 14.1417 0.954675ZM19.147 8.41363C18.7455 5.9065 18.344 3.43505 17.9425 0.963597C16.9789 0.963597 16.051 0.963597 15.0785 0.963597C15.1677 3.45289 15.257 5.92434 15.3373 8.41363C16.6131 8.41363 17.8533 8.41363 19.147 8.41363ZM7.03961 0.954675C6.63812 3.44397 6.23662 5.91542 5.83512 8.40471C7.11991 8.40471 8.36902 8.40471 9.63597 8.40471C9.7252 5.90649 9.8055 3.43505 9.89472 0.954675C8.9222 0.954675 7.98537 0.954675 7.03961 0.954675ZM18.8883 0.954675C19.2987 3.47073 19.7002 5.94218 20.0928 8.40471C21.3597 8.40471 22.5732 8.40471 23.8223 8.40471C22.9033 5.89757 22.0021 3.42612 21.101 0.954675C20.3605 0.954675 19.6467 0.954675 18.8883 0.954675ZM3.89008 0.936831C2.98001 3.42612 2.06995 5.9065 1.15096 8.41363C2.40899 8.41363 3.63133 8.41363 4.88044 8.41363C5.28194 5.93326 5.68344 3.46181 6.08494 0.97252C6.02248 0.963597 5.97787 0.945753 5.93326 0.945753C5.2641 0.936831 4.58601 0.936831 3.89008 0.936831ZM10.6442 9.37723C10.8405 10.2605 11.6345 10.8583 12.5625 10.8315C13.419 10.8137 14.1952 10.1802 14.3291 9.37723C13.1067 9.37723 11.8844 9.37723 10.6442 9.37723ZM19.1292 9.38615C17.9069 9.38615 16.6756 9.38615 15.4443 9.38615C15.6585 10.2873 16.4615 10.8672 17.4072 10.8315C18.2459 10.7959 19.0132 10.1445 19.1292 9.38615ZM5.84404 9.37723C5.98679 10.2516 6.84333 10.8762 7.80692 10.8315C8.64561 10.7959 9.45753 10.0999 9.51106 9.37723C8.28872 9.37723 7.06638 9.37723 5.84404 9.37723ZM20.2445 9.37723C20.4675 10.3051 21.2973 10.894 22.243 10.8315C23.0639 10.778 23.8312 10.1178 23.9293 9.37723C22.707 9.37723 21.4847 9.37723 20.2445 9.37723ZM1.03498 9.37723C1.17773 10.2338 2.02534 10.8672 2.96217 10.8315C3.8187 10.7959 4.63954 10.1088 4.69308 9.37723C3.47966 9.37723 2.25732 9.37723 1.03498 9.37723Z" fill="black"/>
<path d="M16.3901 13.2941C17.5768 13.2941 18.7724 13.2941 19.959 13.2941C20.4319 13.2941 20.5836 13.4368 20.5836 13.9008C20.5836 15.6495 20.5836 17.3983 20.5836 19.1381C20.5836 19.6199 20.4319 19.7627 19.9412 19.7627C17.559 19.7627 15.1767 19.7627 12.7945 19.7627C12.3038 19.7627 12.1521 19.611 12.1521 19.1292C12.1521 17.3804 12.1521 15.6317 12.1521 13.8919C12.1521 13.4458 12.3127 13.2852 12.7499 13.2852C13.9722 13.2941 15.1856 13.2941 16.3901 13.2941ZM19.6289 18.8258C19.6289 17.2912 19.6289 15.7745 19.6289 14.2577C17.443 14.2577 15.2749 14.2577 13.1068 14.2577C13.1068 15.7923 13.1068 17.3001 13.1068 18.8258C15.2927 18.8258 17.4519 18.8258 19.6289 18.8258Z" fill="black"/>
</g>
<defs>
<clipPath id="clip0_19_349">
<rect width="24.9732" height="25" fill="white"/>
</clipPath>
</defs>
</svg>
