<svg width="111" height="26" viewBox="0 0 111 26" fill="none" xmlns="http://www.w3.org/2000/svg">
<path d="M30.54 5.86C30.54 4.932 30.76 4.128 31.2 3.448C31.64 2.76 32.188 2.256 32.844 1.936C33.5 1.616 34.204 1.456 34.956 1.456C35.82 1.456 36.608 1.644 37.32 2.02V3.028C36.712 2.62 35.98 2.416 35.124 2.416C34.164 2.416 33.332 2.712 32.628 3.304C31.924 3.888 31.568 4.74 31.56 5.86C31.56 6.572 31.74 7.188 32.1 7.708C32.468 8.228 32.916 8.604 33.444 8.836C33.98 9.068 34.552 9.184 35.16 9.184C36.064 9.184 36.804 8.98 37.38 8.572V9.58C36.652 9.956 35.84 10.144 34.944 10.144C34.408 10.144 33.88 10.052 33.36 9.868C32.84 9.676 32.368 9.408 31.944 9.064C31.52 8.712 31.18 8.26 30.924 7.708C30.668 7.148 30.54 6.532 30.54 5.86ZM39.6644 10H38.7044V4.24H39.6644V6.64H40.8284L42.6524 4.24H43.7684L41.5844 7.108L44.0324 10H42.9044L40.7924 7.528H39.6644V10ZM45.8017 10H44.9857V4.24H45.9457V8.452L49.4737 4.24H50.2897V10H49.3297V5.788L45.8017 10ZM52.4238 11.56H51.4878V9.136H52.2558C52.9358 7.936 53.2638 6.304 53.2398 4.24H57.5358V9.136H58.3758V11.56H57.4398V10H52.4238V11.56ZM54.1638 5.104C54.1238 6.68 53.8358 8.024 53.2998 9.136H56.5758V5.104H54.1638ZM60.6175 10H59.6575V4.24H60.6175V6.64H61.7815L63.6055 4.24H64.7215L62.5375 7.108L64.9855 10H63.8575L61.7455 7.528H60.6175V10ZM70.5719 8.8C70.5719 9.096 70.7199 9.244 71.0159 9.244C71.1439 9.244 71.2919 9.216 71.4599 9.16V9.94C71.2199 10.028 70.9799 10.072 70.7399 10.072C70.1879 10.072 69.8359 9.84 69.6839 9.376C69.0679 9.888 68.3199 10.144 67.4399 10.144C66.8799 10.144 66.3999 9.996 65.9999 9.7C65.6079 9.396 65.4119 8.96 65.4119 8.392C65.4119 7.712 65.6639 7.22 66.1679 6.916C66.6799 6.604 67.2959 6.448 68.0159 6.448C68.5439 6.448 69.0759 6.508 69.6119 6.628V6.424C69.6119 5.984 69.4679 5.636 69.1799 5.38C68.8919 5.116 68.4879 4.984 67.9679 4.984C67.2399 4.984 66.5399 5.128 65.8679 5.416V4.48C66.6199 4.224 67.3519 4.096 68.0639 4.096C68.8479 4.096 69.4599 4.308 69.8999 4.732C70.3479 5.148 70.5719 5.752 70.5719 6.544V8.8ZM66.3959 8.344C66.3959 8.664 66.5159 8.908 66.7559 9.076C67.0039 9.236 67.2999 9.316 67.6439 9.316C68.4359 9.316 69.0919 9.036 69.6119 8.476V7.42C69.0679 7.308 68.5799 7.252 68.1479 7.252C67.6599 7.252 67.2439 7.34 66.8999 7.516C66.5639 7.684 66.3959 7.96 66.3959 8.344ZM77.2058 1.84H77.9498V9.04H79.4738V10H75.2258V9.04H76.9418V2.908L75.2258 3.556V2.596L77.2058 1.84ZM81.2701 8.98C80.6621 8.204 80.3581 7.184 80.3581 5.92C80.3581 4.656 80.6621 3.636 81.2701 2.86C81.8781 2.084 82.7741 1.696 83.9581 1.696C85.1501 1.696 86.0501 2.084 86.6581 2.86C87.2661 3.628 87.5701 4.648 87.5701 5.92C87.5701 7.192 87.2661 8.216 86.6581 8.992C86.0501 9.76 85.1501 10.144 83.9581 10.144C82.7741 10.144 81.8781 9.756 81.2701 8.98ZM85.9021 8.344C86.3341 7.776 86.5501 6.968 86.5501 5.92C86.5501 4.872 86.3341 4.068 85.9021 3.508C85.4781 2.94 84.8301 2.656 83.9581 2.656C83.0861 2.656 82.4381 2.94 82.0141 3.508C81.5901 4.068 81.3781 4.872 81.3781 5.92C81.3781 6.968 81.5901 7.776 82.0141 8.344C82.4381 8.904 83.0861 9.184 83.9581 9.184C84.8301 9.184 85.4781 8.904 85.9021 8.344ZM91.5916 10.72H90.6316L95.5396 0.879999H96.4996L91.5916 10.72ZM91.9396 1.96C92.3236 2.296 92.5156 2.756 92.5156 3.34C92.5156 3.924 92.3236 4.384 91.9396 4.72C91.5636 5.056 91.1036 5.224 90.5596 5.224C90.0076 5.224 89.5396 5.056 89.1556 4.72C88.7716 4.384 88.5796 3.924 88.5796 3.34C88.5796 2.756 88.7716 2.296 89.1556 1.96C89.5396 1.624 90.0076 1.456 90.5596 1.456C91.1036 1.456 91.5636 1.624 91.9396 1.96ZM89.7676 2.596C89.5836 2.796 89.4916 3.044 89.4916 3.34C89.4916 3.636 89.5836 3.884 89.7676 4.084C89.9596 4.284 90.2236 4.384 90.5596 4.384C90.8876 4.384 91.1436 4.284 91.3276 4.084C91.5116 3.884 91.6036 3.636 91.6036 3.34C91.6036 3.044 91.5116 2.796 91.3276 2.596C91.1436 2.396 90.8876 2.296 90.5596 2.296C90.2236 2.296 89.9596 2.396 89.7676 2.596ZM97.9636 6.88C98.3476 7.216 98.5396 7.676 98.5396 8.26C98.5396 8.844 98.3476 9.304 97.9636 9.64C97.5876 9.976 97.1276 10.144 96.5836 10.144C96.0316 10.144 95.5636 9.976 95.1796 9.64C94.7956 9.304 94.6036 8.844 94.6036 8.26C94.6036 7.676 94.7956 7.216 95.1796 6.88C95.5636 6.544 96.0316 6.376 96.5836 6.376C97.1276 6.376 97.5876 6.544 97.9636 6.88ZM95.7916 7.516C95.6076 7.716 95.5156 7.964 95.5156 8.26C95.5156 8.556 95.6076 8.804 95.7916 9.004C95.9836 9.204 96.2476 9.304 96.5836 9.304C96.9116 9.304 97.1676 9.204 97.3516 9.004C97.5356 8.804 97.6276 8.556 97.6276 8.26C97.6276 7.964 97.5356 7.716 97.3516 7.516C97.1676 7.316 96.9116 7.216 96.5836 7.216C96.2476 7.216 95.9836 7.316 95.7916 7.516ZM31.404 21.34C30.796 20.796 30.492 20.056 30.492 19.12C30.492 18.184 30.796 17.448 31.404 16.912C32.012 16.368 32.732 16.096 33.564 16.096C34.404 16.096 35.124 16.368 35.724 16.912C36.332 17.448 36.636 18.184 36.636 19.12C36.636 20.056 36.332 20.796 35.724 21.34C35.124 21.876 34.404 22.144 33.564 22.144C32.732 22.144 32.012 21.876 31.404 21.34ZM35.076 20.668C35.476 20.284 35.676 19.768 35.676 19.12C35.676 18.472 35.476 17.96 35.076 17.584C34.676 17.2 34.172 17.008 33.564 17.008C32.956 17.008 32.452 17.2 32.052 17.584C31.652 17.96 31.452 18.472 31.452 19.12C31.452 19.768 31.652 20.284 32.052 20.668C32.452 21.044 32.956 21.232 33.564 21.232C34.172 21.232 34.676 21.044 35.076 20.668ZM40.2255 22H39.2655V17.128H37.1415V16.24H42.3375V17.128H40.2255V22ZM48.1433 13.84H48.8873V21.04H50.4113V22H46.1633V21.04H47.8793V14.908L46.1633 15.556V14.596L48.1433 13.84ZM52.2076 20.98C51.5996 20.204 51.2956 19.184 51.2956 17.92C51.2956 16.656 51.5996 15.636 52.2076 14.86C52.8156 14.084 53.7116 13.696 54.8956 13.696C56.0876 13.696 56.9876 14.084 57.5956 14.86C58.2036 15.628 58.5076 16.648 58.5076 17.92C58.5076 19.192 58.2036 20.216 57.5956 20.992C56.9876 21.76 56.0876 22.144 54.8956 22.144C53.7116 22.144 52.8156 21.756 52.2076 20.98ZM56.8396 20.344C57.2716 19.776 57.4876 18.968 57.4876 17.92C57.4876 16.872 57.2716 16.068 56.8396 15.508C56.4156 14.94 55.7676 14.656 54.8956 14.656C54.0236 14.656 53.3756 14.94 52.9516 15.508C52.5276 16.068 52.3156 16.872 52.3156 17.92C52.3156 18.968 52.5276 19.776 52.9516 20.344C53.3756 20.904 54.0236 21.184 54.8956 21.184C55.7676 21.184 56.4156 20.904 56.8396 20.344ZM60.6451 20.98C60.0371 20.204 59.7331 19.184 59.7331 17.92C59.7331 16.656 60.0371 15.636 60.6451 14.86C61.2531 14.084 62.1491 13.696 63.3331 13.696C64.5251 13.696 65.4251 14.084 66.0331 14.86C66.6411 15.628 66.9451 16.648 66.9451 17.92C66.9451 19.192 66.6411 20.216 66.0331 20.992C65.4251 21.76 64.5251 22.144 63.3331 22.144C62.1491 22.144 61.2531 21.756 60.6451 20.98ZM65.2771 20.344C65.7091 19.776 65.9251 18.968 65.9251 17.92C65.9251 16.872 65.7091 16.068 65.2771 15.508C64.8531 14.94 64.2051 14.656 63.3331 14.656C62.4611 14.656 61.8131 14.94 61.3891 15.508C60.9651 16.068 60.7531 16.872 60.7531 17.92C60.7531 18.968 60.9651 19.776 61.3891 20.344C61.8131 20.904 62.4611 21.184 63.3331 21.184C64.2051 21.184 64.8531 20.904 65.2771 20.344ZM69.0826 20.98C68.4746 20.204 68.1706 19.184 68.1706 17.92C68.1706 16.656 68.4746 15.636 69.0826 14.86C69.6906 14.084 70.5866 13.696 71.7706 13.696C72.9626 13.696 73.8626 14.084 74.4706 14.86C75.0786 15.628 75.3826 16.648 75.3826 17.92C75.3826 19.192 75.0786 20.216 74.4706 20.992C73.8626 21.76 72.9626 22.144 71.7706 22.144C70.5866 22.144 69.6906 21.756 69.0826 20.98ZM73.7146 20.344C74.1466 19.776 74.3626 18.968 74.3626 17.92C74.3626 16.872 74.1466 16.068 73.7146 15.508C73.2906 14.94 72.6426 14.656 71.7706 14.656C70.8986 14.656 70.2506 14.94 69.8266 15.508C69.4026 16.068 69.1906 16.872 69.1906 17.92C69.1906 18.968 69.4026 19.776 69.8266 20.344C70.2506 20.904 70.8986 21.184 71.7706 21.184C72.6426 21.184 73.2906 20.904 73.7146 20.344ZM77.5201 20.98C76.9121 20.204 76.6081 19.184 76.6081 17.92C76.6081 16.656 76.9121 15.636 77.5201 14.86C78.1281 14.084 79.0241 13.696 80.2081 13.696C81.4001 13.696 82.3001 14.084 82.9081 14.86C83.5161 15.628 83.8201 16.648 83.8201 17.92C83.8201 19.192 83.5161 20.216 82.9081 20.992C82.3001 21.76 81.4001 22.144 80.2081 22.144C79.0241 22.144 78.1281 21.756 77.5201 20.98ZM82.1521 20.344C82.5841 19.776 82.8001 18.968 82.8001 17.92C82.8001 16.872 82.5841 16.068 82.1521 15.508C81.7281 14.94 81.0801 14.656 80.2081 14.656C79.3361 14.656 78.6881 14.94 78.2641 15.508C77.8401 16.068 77.6281 16.872 77.6281 17.92C77.6281 18.968 77.8401 19.776 78.2641 20.344C78.6881 20.904 79.3361 21.184 80.2081 21.184C81.0801 21.184 81.7281 20.904 82.1521 20.344ZM89.1739 17.2C89.8219 16.464 90.5979 16.096 91.5019 16.096C92.3259 16.096 93.0099 16.384 93.5539 16.96C94.1059 17.536 94.3819 18.256 94.3819 19.12C94.3819 19.984 94.1059 20.704 93.5539 21.28C93.0099 21.856 92.3259 22.144 91.5019 22.144C90.5899 22.144 89.8459 21.808 89.2699 21.136V24.64H88.3099V16.24H89.1739V17.2ZM92.8339 20.668C93.2259 20.276 93.4219 19.76 93.4219 19.12C93.4219 18.48 93.2259 17.964 92.8339 17.572C92.4499 17.18 91.9699 16.984 91.3939 16.984C90.9059 16.984 90.4739 17.12 90.0979 17.392C89.7219 17.664 89.4459 18 89.2699 18.4V19.84C89.4459 20.24 89.7219 20.576 90.0979 20.848C90.4739 21.12 90.9059 21.256 91.3939 21.256C91.9699 21.256 92.4499 21.06 92.8339 20.668ZM97.9878 20.908L99.9318 16.24H100.952L98.1198 22.864C97.5678 24.144 96.8438 24.784 95.9478 24.784C95.7318 24.784 95.5238 24.756 95.3238 24.7V23.872C95.4918 23.92 95.6598 23.944 95.8278 23.944C96.4438 23.944 96.9398 23.476 97.3158 22.54L97.5318 22.012L94.7958 16.24H95.8158L97.9878 20.908ZM107.649 19.288C107.649 20.176 107.377 20.876 106.833 21.388C106.297 21.892 105.589 22.144 104.709 22.144C103.813 22.144 103.089 21.848 102.537 21.256C101.993 20.664 101.721 19.836 101.721 18.772C101.721 17.844 101.881 17.044 102.201 16.372C102.521 15.7 102.953 15.196 103.497 14.86C103.865 14.636 104.245 14.46 104.637 14.332C105.037 14.196 105.365 14.112 105.621 14.08C105.885 14.048 106.157 13.984 106.437 13.888C106.717 13.784 106.949 13.64 107.133 13.456V14.464C106.909 14.624 106.633 14.744 106.305 14.824C105.977 14.896 105.613 14.984 105.213 15.088C104.813 15.192 104.429 15.352 104.061 15.568C103.701 15.784 103.421 16.056 103.221 16.384C103.021 16.712 102.845 17.104 102.693 17.56C102.901 17.24 103.197 16.98 103.581 16.78C103.965 16.58 104.377 16.48 104.817 16.48C105.593 16.48 106.257 16.74 106.809 17.26C107.369 17.78 107.649 18.456 107.649 19.288ZM102.681 19.312C102.681 19.864 102.865 20.324 103.233 20.692C103.601 21.052 104.085 21.232 104.685 21.232C105.301 21.232 105.789 21.052 106.149 20.692C106.509 20.332 106.689 19.872 106.689 19.312C106.689 18.752 106.509 18.292 106.149 17.932C105.789 17.572 105.301 17.392 104.685 17.392C104.109 17.392 103.629 17.588 103.245 17.98C102.869 18.364 102.681 18.808 102.681 19.312ZM109.752 21.052C109.872 21.156 109.932 21.304 109.932 21.496C109.932 21.688 109.872 21.84 109.752 21.952C109.632 22.056 109.484 22.108 109.308 22.108C109.132 22.108 108.98 22.056 108.852 21.952C108.732 21.84 108.672 21.688 108.672 21.496C108.672 21.304 108.732 21.156 108.852 21.052C108.98 20.948 109.132 20.896 109.308 20.896C109.484 20.896 109.632 20.948 109.752 21.052Z" fill="black"/>
<path d="M15.8875 24.9287C15.3329 24.9287 14.794 24.8177 14.3265 24.5404C13.3836 23.9778 12.4803 24.0095 11.5215 24.5245C10.3883 25.1347 9.23937 25.0634 8.14587 24.3819C7.64666 24.0729 7.28216 23.6371 6.9969 23.122C6.86219 22.8764 6.74333 22.6307 6.59278 22.4009C6.17281 21.7591 5.53097 21.5293 4.8099 21.4263C3.3202 21.2044 2.21877 20.2535 1.93351 18.8589C1.8305 18.3518 1.85427 17.7971 1.92559 17.2741C2.04445 16.4184 1.8622 15.6894 1.22828 15.0871C0.602292 14.4928 0.150628 13.8035 0.0317695 12.9318C-0.0950134 11.9572 0.158552 11.0935 0.776619 10.3328C0.927173 10.1505 1.09358 9.97621 1.25998 9.8098C1.8622 9.22343 2.06822 8.5182 1.91766 7.70204C1.72749 6.67193 1.84635 5.71313 2.48026 4.85735C3.04286 4.09665 3.80356 3.63706 4.73858 3.52613C5.77662 3.40727 6.47392 2.90014 6.93351 1.95719C7.56742 0.657666 8.64508 -2.03741e-05 10.1031 0.0158275C10.6498 0.0237514 11.1649 0.18223 11.6245 0.451644C12.504 0.966699 13.344 0.911231 14.2394 0.451644C16.1094 -0.499228 17.9557 0.102991 18.9224 1.97304C19.3741 2.84467 19.9921 3.39935 20.9826 3.50236C22.8368 3.69253 24.3899 5.34863 23.9383 7.67034C23.7719 8.52613 23.9858 9.2472 24.6197 9.85735C25.2378 10.4516 25.6974 11.141 25.8083 12.0206C25.9351 12.9952 25.6815 13.8589 25.0714 14.6196C24.9208 14.8019 24.7544 14.9762 24.588 15.1426C23.9779 15.729 23.7798 16.4342 23.9303 17.2504C24.1047 18.1854 24.0175 19.0808 23.5024 19.9049C22.8844 20.8795 21.9573 21.347 20.8479 21.4897C19.9921 21.6006 19.3899 22.0523 19.0254 22.8209C18.6451 23.6054 18.1221 24.2789 17.298 24.6196C16.8543 24.8019 16.3788 24.889 15.9192 25.0158C15.9034 24.9762 15.8955 24.9524 15.8875 24.9287ZM3.18549 8.05861C3.19342 9.04118 2.86854 9.86527 2.27424 10.4992C2.09991 10.6894 1.90974 10.8637 1.74334 11.0618C1.03811 11.8779 1.03018 13.0348 1.73541 13.8589C1.89389 14.0491 2.07614 14.2155 2.24254 14.3978C2.97155 15.1822 3.27266 16.1014 3.1538 17.1711C3.09833 17.6307 3.03494 18.1062 3.10625 18.5499C3.25681 19.4691 3.98581 20.0951 5.01592 20.2298C6.37091 20.4041 7.35348 21.0697 7.93985 22.3138C7.99532 22.4405 8.06663 22.5594 8.13795 22.6783C8.61338 23.4152 9.29484 23.7955 10.1665 23.6846C10.5864 23.6291 10.9985 23.439 11.3788 23.2567C12.0365 22.9477 12.718 22.7892 13.4232 22.9398C13.9383 23.0507 14.4295 23.2805 14.9129 23.4944C16.0143 23.9857 17.1791 23.6212 17.7655 22.5673C17.8765 22.3692 17.9715 22.1632 18.0904 21.9651C18.6292 21.038 19.4295 20.4833 20.4913 20.3011C20.737 20.2615 20.9826 20.2218 21.2203 20.1585C22.3535 19.8573 22.9715 18.8114 22.7417 17.5436C22.504 16.2361 22.8289 15.1188 23.7956 14.1997C23.8986 14.1046 23.9937 14.0016 24.0809 13.8986C24.8099 13.0586 24.8178 11.9017 24.0888 11.0539C23.9303 10.8637 23.7481 10.6973 23.5817 10.515C22.8685 9.73056 22.5674 8.81931 22.6942 7.75751C22.7497 7.29792 22.8131 6.82248 22.7417 6.37874C22.5912 5.45957 21.886 4.84942 20.8321 4.70679C19.4533 4.51662 18.4628 3.83516 17.8765 2.56733C17.8527 2.51187 17.821 2.46432 17.7893 2.40885C17.1791 1.2995 16.0223 0.927079 14.8812 1.46591C14.5643 1.61646 14.2394 1.78286 13.9066 1.8938C12.9002 2.21868 11.9731 1.98889 11.054 1.52137C9.81782 0.88746 8.66092 1.27573 8.00324 2.49602C7.81307 2.84467 7.62289 3.19332 7.37725 3.49443C6.79088 4.22343 5.97471 4.55624 5.06346 4.69095C3.60546 4.90489 2.86061 5.935 3.09833 7.39301C3.13795 7.6545 3.16964 7.91598 3.18549 8.05861Z" fill="black"/>
<path d="M7.91602 16.7432C7.97941 16.6561 8.07449 16.458 8.21712 16.3153C10.42 14.1046 12.6308 11.8938 14.8415 9.68302C15.523 9.00156 16.1965 8.32803 16.878 7.65449C17.0999 7.43262 17.401 7.40093 17.6387 7.54356C17.8764 7.68619 18.0032 7.97145 17.9002 8.23294C17.8447 8.3835 17.7258 8.5182 17.607 8.63706C15.5785 10.6735 13.542 12.71 11.5056 14.7385C10.6656 15.5784 9.82568 16.4184 8.99367 17.2583C8.79557 17.4643 8.55785 17.5356 8.28844 17.4247C8.05072 17.3296 7.92394 17.1315 7.91602 16.7432Z" fill="black"/>
<path d="M7.87646 8.27254C7.87646 6.83831 9.02543 5.69727 10.4597 5.69727C11.886 5.69727 13.0429 6.86208 13.0349 8.28839C13.027 9.69885 11.8622 10.8557 10.4597 10.8557C9.03336 10.8637 7.87646 9.69885 7.87646 8.27254ZM11.8067 8.28047C11.8147 7.51977 11.1966 6.89378 10.4438 6.9017C9.69897 6.90963 9.08883 7.51977 9.0809 8.2567C9.07298 9.00947 9.69104 9.62754 10.4517 9.62754C11.2124 9.63546 11.8067 9.04116 11.8067 8.28047Z" fill="black"/>
<path d="M17.9715 16.664C17.9715 18.0903 16.8146 19.2393 15.3883 19.2313C13.962 19.2313 12.813 18.0665 12.813 16.6402C12.8209 15.2218 13.9857 14.0649 15.4041 14.0649C16.8225 14.0729 17.9715 15.2377 17.9715 16.664ZM14.0333 16.6561C14.0333 17.4088 14.6276 18.0111 15.3724 18.0269C16.1252 18.0348 16.7591 17.4168 16.7591 16.664C16.7591 15.9112 16.141 15.3011 15.3803 15.3011C14.6197 15.3011 14.0333 15.8954 14.0333 16.6561Z" fill="black"/>
</svg>
